<?xml version="1.0" encoding="utf-8"?>
<!-- Generator: Adobe Illustrator 19.0.0, SVG Export Plug-In . SVG Version: 6.00 Build 0)  -->
<svg version="1.1" id="Layer_1" xmlns="http://www.w3.org/2000/svg" xmlns:xlink="http://www.w3.org/1999/xlink" x="0px" y="0px"
	 width="113.1px" height="87px" viewBox="0 0 113.1 87" style="enable-background:new 0 0 113.1 87;" xml:space="preserve">
<style type="text/css">
	
		.st0{clip-path:url(#SVGID_2_);fill:none;stroke:#ABD809;stroke-width:1.75;stroke-linecap:round;stroke-linejoin:round;stroke-miterlimit:10;}
	
		.st1{clip-path:url(#SVGID_2_);fill:none;stroke:#ABD809;stroke-width:0.75;stroke-linecap:round;stroke-linejoin:round;stroke-miterlimit:10;}
	.st2{clip-path:url(#SVGID_2_);fill:none;stroke:#ABD809;stroke-width:0.75;stroke-miterlimit:10;}
	.st3{clip-path:url(#SVGID_2_);fill:#ABD809;}
	
		.st4{clip-path:url(#SVGID_2_);fill:none;stroke:#FFFFFF;stroke-width:1.75;stroke-linecap:round;stroke-linejoin:round;stroke-miterlimit:10;}
	
		.st5{clip-path:url(#SVGID_2_);fill:none;stroke:#FFFFFF;stroke-width:0.75;stroke-linecap:round;stroke-linejoin:round;stroke-miterlimit:10;}
</style>
<g>
	<defs>
		<rect id="SVGID_1_" width="113.1" height="87"/>
	</defs>
	<clipPath id="SVGID_2_">
		<use xlink:href="#SVGID_1_"  style="overflow:visible;"/>
	</clipPath>
	<path class="st0" d="M58.9,22.5c-1.1-0.8-2.2-1.5-3.2-2.2c-6-4.2-18.4-3.8-20.2-5.7c-2.8-2.8-3.1-3.1-3.1-3.1"/>
	<line class="st1" x1="88.6" y1="64.7" x2="60.7" y2="36.9"/>
	<path class="st0" d="M12.6,30.9c0,0,0.7,0.6,1.7,1.6c2.4,2.4,2.7,11.1,5.8,15.4c-4,4-4.6,7.7-2.1,10.1c1.3,1.3,2.9,2.2,4.2,2.2
		c1.2,0,2.3-0.8,3-1.5c-1.2,1.2-2.7,3.5-2.6,5.7c0,1.3,0.4,2.5,1.5,3.5c1.5,1.5,2.7,1.3,4.2,1.3c1.2,0,2.1-0.3,2.8-1
		c-0.9,0.9-2.4,3-2.4,4.6c0,1.1,0.7,2.7,1.9,3.8c3.1,3.1,6.3,0.2,7.9-1.4c-2.1,2.1-0.2,4.7,1.4,6.4c0.7,0.7,2.3,1.4,3.8,1.5
		c1,0.1,1.9-0.1,2.5-0.7c1.5-1.5,2.2-1.9,2.2-1.9l3.5,4c1,1,3.4,1.5,4.7,1.5c1.4,0,2.7-0.5,3.7-1.5c1.4-1.4,2.2-4,1.1-5.1
		c1,1,2.9,2.6,4.2,2.6s2.7-0.5,3.7-1.5c1.4-1.4,2.7-4.2,1.3-5.6c1.5,1.5,3.7,3.3,5.1,3.3c1.4,0,2.7-0.5,3.7-1.5
		c1.4-1.4,2.6-4.4,1.2-5.7c1.6,1.6,3.6,2.2,5,2.2c1.4,0,2.7-0.3,3.7-1.3c1-1,1.5-2,1.5-3.3c0-1.4-0.5-2.7-1.5-3.7l-3.1-2.9
		c0,0,5.8-5.8,8.6-9.3c2.8-3.5,3.5-16.1,6.5-19.1"/>
	<path class="st2" d="M20.6,48.1c2.1-2.1,6-2.1,8-0.1c1,1,1.6,2.4,1.5,3.7c-0.1,1.4-0.9,2.7-2,3.8l-3.3,3"/>
	<path class="st2" d="M41.9,72.1c2.1-2.1,4.8-2,6.8,0.1c2.1,2.1,2.1,5.4,0,7.5l-1.2,1.2"/>
	<path class="st2" d="M24.3,60.1l4-4c2.1-2.1,5.4-2.1,7.5,0c2.1,2.1,2.1,5.4,0,7.5l-5,5"/>
	<path class="st2" d="M30.6,69.3l4-4c2.1-2.1,5.1-2.4,7.1-0.3c2.1,2.1,2.1,5.4,0,7.5l-4,4"/>
	<path class="st1" d="M73.2,34.3c-4.1,3.1-19.5,2.1-19.5,2.1l-5.2,5.9c-2.6,3.6-7.5,3.9-9.6,2.6c-2.5-1.5-3.6-2.9-2.1-5.4l7.7-10.3
		c0.6-1,1.5-1.7,2.6-2.2l12.5-3.8"/>
	<path class="st0" d="M59.9,22.3c0,0,6-2.4,12.1-4.7l6.3-0.8l3.8-3.2"/>
	<line class="st1" x1="80.8" y1="70.9" x2="70.1" y2="60.3"/>
	<line class="st1" x1="71.3" y1="75.6" x2="61.9" y2="66.2"/>
	<line class="st1" x1="61.2" y1="79.4" x2="54.4" y2="72.5"/>
	<path class="st3" d="M88.7,8.1c1.6,0,2.9,1.3,2.9,2.9c0,1.6-1.3,2.9-2.9,2.9c-1.6,0-2.9-1.3-2.9-2.9C85.8,9.4,87.1,8.1,88.7,8.1
		 M88.7,7.3L88.7,7.3c-2,0-3.6,1.6-3.7,3.6c0,2,1.6,3.7,3.7,3.7c2,0,3.6-1.6,3.6-3.7C92.4,9,90.7,7.3,88.7,7.3"/>
	<path class="st4" d="M82.3,13.6l-1.7-1.7c-0.8-0.8-0.8-2.1,0-2.8l6.6-6.6c0.8-0.8,2-0.8,2.8,0l21.7,21.8c0.8,0.8,0.8,2.1,0,2.8
		l-6.6,6.6c-0.8,0.8-1.9,0.9-2.5,0.4c-0.6-0.6-1-1.1-1-1.1"/>
	<path class="st3" d="M10.8,21.2L10.8,21.2c1.6,0,2.9,1.3,2.9,2.9c0,1.6-1.3,2.9-2.9,2.9c-1.6,0-2.9-1.3-2.9-2.9
		C7.9,22.5,9.2,21.2,10.8,21.2 M10.8,20.4c-2,0-3.6,1.6-3.6,3.6c0,2,1.6,3.6,3.6,3.7c1,0,1.9-0.4,2.6-1.1c0.7-0.7,1.1-1.6,1.1-2.6
		c0-1-0.4-1.9-1.1-2.6C12.7,20.8,11.7,20.4,10.8,20.4L10.8,20.4z"/>
	<path class="st4" d="M12.7,31l-1.8,1.8c-0.8,0.8-2.1,0.8-2.8,0l-6.6-6.6c-0.8-0.8-0.8-2.1,0-2.8l22-22c0.8-0.8,2.1-0.8,2.8,0
		L32.8,8c0.8,0.8,1,1.8,0.4,2.4c-0.5,0.5-1,1-1,1"/>
	<line class="st5" x1="12.3" y1="30.8" x2="32.1" y2="11"/>
	<line class="st5" x1="81.1" y1="12.6" x2="102.2" y2="33.8"/>
</g>
</svg>
