<?xml version="1.0" encoding="utf-8"?>
<!-- Generator: Adobe Illustrator 19.0.0, SVG Export Plug-In . SVG Version: 6.00 Build 0)  -->
<svg version="1.1" id="Layer_1" xmlns="http://www.w3.org/2000/svg" xmlns:xlink="http://www.w3.org/1999/xlink" x="0px" y="0px"
	 width="111.8px" height="94.3px" viewBox="0 0 111.8 94.3" style="enable-background:new 0 0 111.8 94.3;" xml:space="preserve">
<style type="text/css">
	
		.st0{clip-path:url(#SVGID_2_);fill:none;stroke:#ABD809;stroke-width:0.75;stroke-linecap:round;stroke-linejoin:round;stroke-miterlimit:10;}
	
		.st1{clip-path:url(#SVGID_2_);fill:none;stroke:#ABD809;stroke-width:1.75;stroke-linecap:round;stroke-linejoin:round;stroke-miterlimit:10;}
	
		.st2{clip-path:url(#SVGID_2_);fill:none;stroke:#FFFFFF;stroke-width:1.75;stroke-linecap:round;stroke-linejoin:round;stroke-miterlimit:10;}
</style>
<g>
	<defs>
		<rect id="SVGID_1_" y="0" width="111.8" height="94.3"/>
	</defs>
	<clipPath id="SVGID_2_">
		<use xlink:href="#SVGID_1_"  style="overflow:visible;"/>
	</clipPath>
	<path class="st0" d="M7.6,45.3c26.4,0,47.8,21.4,47.8,47.8"/>
	<path class="st0" d="M42.8,27.9c13,4.7,23.3,14.9,28.3,27.8"/>
	<path class="st0" d="M39.6,55.5c4.8-12.3,14.6-22.2,26.9-27.1"/>
	<path class="st0" d="M56.2,93.1c0-26.4,21.4-47.8,47.8-47.8"/>
	<path class="st0" d="M43.9,28.5C35.1,38.8,22.1,45.3,7.5,45.3"/>
	<path class="st0" d="M104,45.3c-14.6,0-27.6-6.5-36.4-16.8"/>
	<path class="st0" d="M83.8,20.3c-7.9,5.8-17.7,9.3-28.3,9.3c-10.2,0-19.7-3.2-27.5-8.7"/>
	<path class="st0" d="M76.8,53.7c-6.3,3.1-13.5,4.9-21,4.9c-7.6,0-14.8-1.8-21.1-4.9"/>
	<polygon class="st1" points="104.8,45.3 55.7,93.4 6.6,45.3 27.5,20 83.9,20 	"/>
	<line class="st2" x1="6.5" y1="24.1" x2="0.9" y2="18.2"/>
	<line class="st2" x1="28.6" y1="13" x2="25.2" y2="4.7"/>
	<line class="st2" x1="55.9" y1="10.9" x2="55.9" y2="0.9"/>
	<line class="st2" x1="105.3" y1="24.1" x2="110.9" y2="18.2"/>
	<line class="st2" x1="83.2" y1="13" x2="86.6" y2="4.7"/>
	<line class="st2" x1="55.9" y1="10.9" x2="55.9" y2="0.9"/>
</g>
</svg>
