<?xml version="1.0" encoding="utf-8"?>
<!-- Generator: Adobe Illustrator 19.0.0, SVG Export Plug-In . SVG Version: 6.00 Build 0)  -->
<svg version="1.1" id="Layer_1" xmlns="http://www.w3.org/2000/svg" xmlns:xlink="http://www.w3.org/1999/xlink" x="0px" y="0px"
	 width="86.5px" height="105px" viewBox="0 0 86.5 105" style="enable-background:new 0 0 86.5 105;" xml:space="preserve">
<style type="text/css">
	.st0{clip-path:url(#SVGID_2_);fill:#FFFFFF;}
	
		.st1{clip-path:url(#SVGID_2_);fill:none;stroke:#ABD809;stroke-width:1.75;stroke-linecap:round;stroke-linejoin:round;stroke-miterlimit:10;}
	
		.st2{clip-path:url(#SVGID_2_);fill:none;stroke:#FFFFFF;stroke-width:1.75;stroke-linecap:round;stroke-linejoin:round;stroke-miterlimit:10;}
	.st3{clip-path:url(#SVGID_2_);fill:none;stroke:#FFFFFF;stroke-miterlimit:10;}
</style>
<g>
	<defs>
		<rect id="SVGID_1_" y="0" width="86.5" height="105"/>
	</defs>
	<clipPath id="SVGID_2_">
		<use xlink:href="#SVGID_1_"  style="overflow:visible;"/>
	</clipPath>
	<path class="st0" d="M8.4,34.7c4.2,0,7.6,3.4,7.6,7.7S12.6,50,8.4,50c-4.2,0-7.7-3.4-7.7-7.6S4.2,34.7,8.4,34.7 M8.4,34
		C3.8,34,0,37.7,0,42.4s3.8,8.4,8.4,8.4c4.6,0,8.4-3.8,8.4-8.4S13,34,8.4,34"/>
	<path class="st1" d="M34.2,20.6c0,0-2-5-3.8-10.5c-1.4-4.4,0.1-9,2.4-9.3c1.4-0.2,3,1,3.9,3.6c2.5,6.7,11.8,25.2,11.8,25.2"/>
	<path class="st1" d="M51.9,32.4c0,0-1.9-8.2-2.6-16.9c-0.9-10.7-7.4-6.7-7.4,0.1"/>
	<path class="st1" d="M70.1,68l-3.5-11.5L55.7,36.1c0,0-16.3-13.2-18.2-14.1C35.7,21.2,24.1,20,22,20c-2.1,0-15.7,5-19.2,7.1
		c-0.9,0.6-1.5,2.3-0.4,3.7C3.5,32.2,6.3,33.4,8,33c3.3-0.9,15-4.2,15-4.2L33.2,33c0,0,7.7,9.9,7.7,12c0,2.3-3.8,12.7-5.2,14.5
		c-1.3,1.8-3.7,3.1-5.4,2.5c-1.8-0.5-10.8-2.8-10.8-2.8s-4.4-3.1-6.3-5c-1.5-1.5-5.2-2.5-7.6-2.4c-0.6,0-1.1,0.1-1.5,0.3
		c-1.2,0.5-2.1,1.4-2.2,2.7c0,0.8,0.3,1.7,1.1,2.7c2.2,2.6,5.9,7.4,7.4,9.5c2.3,3,7.2,4.2,10.2,5.6c3,1.4,11.6,5.5,13.6,7.2
		c2.1,1.8,13.1,4.3,16.3,8.1"/>
	<path class="st1" d="M61.4,92.1c0,1.9-1.5,3.5-3.5,3.5c-1.9,0-3.5-1.5-3.5-3.5c0-1.9,1.5-3.5,3.5-3.5
		C59.8,88.7,61.4,90.2,61.4,92.1"/>
	<path class="st2" d="M70.1,68l2.6-2.6c0.8-0.8,2.1-0.8,2.8,0l9.6,9.6c0.8,0.8,0.8,2.1,0,2.8l-25.7,25.7c-0.8,0.8-2.1,0.8-2.8,0
		L47,93.9c-0.8-0.8-0.8-2.1,0-2.8l3.4-3.4"/>
	<path class="st1" d="M19.5,20.3c0,0-3.8-3.1-9-7.2C7,10.2,10,4.3,13.2,6.1C16.4,8,36.7,21.9,36.7,21.9"/>
	<line class="st3" x1="49.9" y1="88.8" x2="71.3" y2="67.5"/>
</g>
</svg>
