<?xml version="1.0" encoding="utf-8"?>
<!-- Generator: Adobe Illustrator 19.0.0, SVG Export Plug-In . SVG Version: 6.00 Build 0)  -->
<svg version="1.1" id="Layer_1" xmlns="http://www.w3.org/2000/svg" xmlns:xlink="http://www.w3.org/1999/xlink" x="0px" y="0px"
	 width="104.9px" height="91.7px" viewBox="0 0 104.9 91.7" style="enable-background:new 0 0 104.9 91.7;" xml:space="preserve">
<style type="text/css">
	.st0{clip-path:url(#SVGID_2_);fill:#ABD809;}
	.st1{clip-path:url(#SVGID_2_);fill:#FFFFFF;}
</style>
<g>
	<defs>
		<rect id="SVGID_1_" x="-11" y="-7.1" width="120" height="100"/>
	</defs>
	<clipPath id="SVGID_2_">
		<use xlink:href="#SVGID_1_"  style="overflow:visible;"/>
	</clipPath>
	<path class="st0" d="M39,70.9v1.6l-3.3,3.3v-70h0.2c0.2,0,0.5-0.1,0.6-0.3L39,3v39.8c0.2-0.5,0.5-1,0.8-1.5V2.3l0.5-0.5h4.3L45,2.2
		c0,0,0,0,0,0.1v31.5c0.2-0.3,0.5-0.5,0.8-0.8V3l2.5,2.5c0.2,0.2,0.4,0.3,0.6,0.3H49v24.3c0.2-0.2,0.5-0.4,0.8-0.6V5.8H60v18.6
		c0.2-0.1,0.5-0.1,0.8-0.2V5.8h0.2c0.2,0,0.5-0.1,0.6-0.3L64,3v20.4c0.3,0,0.5-0.1,0.8-0.1v-21l0.5-0.5h4.3L70,2.2c0,0,0,0,0,0.1
		v20.6c0.3,0,0.5,0,0.8,0V3l2.5,2.5c0.2,0.2,0.4,0.3,0.6,0.3H74v17.3c0.3,0,0.5,0.1,0.8,0.1V5.8H84v20.1c0.6,0.3,1.2,0.6,1.8,0.9
		V4.9c0-0.5-0.4-0.9-0.9-0.9H74.3l-3.8-3.8C70.3,0.1,70.1,0,69.9,0h-5c-0.2,0-0.5,0.1-0.6,0.3L60.6,4H49.3l-3.8-3.8
		C45.3,0.1,45.1,0,44.9,0h-5c-0.2,0-0.5,0.1-0.6,0.3L35.6,4H24.3l-3.8-3.8C20.3,0.1,20.1,0,19.9,0h-5c-0.2,0-0.5,0.1-0.6,0.3L10.6,4
		H0.9C0.4,4,0,4.4,0,4.9v72c0,0.5,0.4,0.9,0.9,0.9h10c0.2,0,0.5-0.1,0.6-0.3l3.7-3.8h4.3l3.8,3.8c0.2,0.2,0.4,0.3,0.6,0.3h12
		c0.2,0,0.5-0.1,0.6-0.3l3.7-3.8h0.2C39.9,72.8,39.4,71.9,39,70.9 M10,76H1.7V5.8H10V76z M14,72.5l-3.3,3.3v-70h0.2
		c0.2,0,0.5-0.1,0.6-0.3L14,3V72.5z M20,2.3V72c0,0-0.1,0-0.1,0h-5c0,0-0.1,0-0.1,0V2.3l0.5-0.5h4.3L20,2.3C20,2.3,20,2.3,20,2.3
		 M24,75.7l-3.3-3.3V3l2.5,2.5c0.2,0.2,0.4,0.3,0.6,0.3H24V75.7z M35,76H24.8V5.8H35V76z"/>
	<path class="st1" d="M81.7,45.5l8.1-8.1l-0.5-0.5L81,45.1c-3.3-1.8-7-3.2-11-3.2c-12.7,0-22.7,13.4-23.2,14c-0.2,0.3-0.2,0.6,0,0.9
		c0.3,0.4,5.1,6.4,12.3,10.1l-9,9l0.5,0.5l9.2-9.2c3.1,1.5,6.5,2.5,10.2,2.5c12.7,0,22.7-12.5,23.2-13c0.2-0.3,0.2-0.6,0-0.9
		C92.9,55.5,88.4,49.5,81.7,45.5 M59.7,66.4c-7.3-3.7-12.3-10-12.3-10S57.5,42.7,70,42.7c3.8,0,7.3,1.3,10.4,3L77.1,49
		c-1.8-1.9-4.3-3-7.1-3c-5.5,0-9.9,4.5-9.9,9.9c0,2.8,1.2,5.3,3,7.1L59.7,66.4z M77.1,50c1.3,1.6,2.1,3.6,2.1,5.8
		c0,5.1-4.1,9.2-9.2,9.2c-2.2,0-4.2-0.8-5.8-2.1L77.1,50z M63.6,62.5c-1.7-1.7-2.8-4-2.8-6.6c0-5.1,4.1-9.2,9.2-9.2
		c2.6,0,4.9,1.1,6.6,2.8L63.6,62.5z M70,69.1c-3.4,0-6.7-1-9.6-2.4l3.2-3.2c1.7,1.4,3.9,2.3,6.4,2.3c5.5,0,9.9-4.5,9.9-9.9
		c0-2.4-0.9-4.6-2.3-6.4l3.5-3.5c6.8,4.1,11.5,10.3,11.5,10.3S82.5,69.1,70,69.1 M70,22c-19.2,0-34.9,15.6-34.9,34.9
		S50.8,91.7,70,91.7s34.9-15.6,34.9-34.9S89.2,22,70,22 M70,90c-18.3,0-33.1-14.9-33.1-33.1S51.7,23.7,70,23.7s33.1,14.9,33.1,33.1
		S88.3,90,70,90"/>
</g>
</svg>
