<?xml version="1.0" encoding="utf-8"?>
<!-- Generator: Adobe Illustrator 19.0.0, SVG Export Plug-In . SVG Version: 6.00 Build 0)  -->
<svg version="1.1" id="Layer_1" xmlns="http://www.w3.org/2000/svg" xmlns:xlink="http://www.w3.org/1999/xlink" x="0px" y="0px"
	 width="95.7px" height="97.9px" viewBox="0 0 95.7 97.9" style="enable-background:new 0 0 95.7 97.9;" xml:space="preserve">
<style type="text/css">
	.st0{clip-path:url(#SVGID_2_);fill:#FFFFFF;}
	.st1{clip-path:url(#SVGID_2_);fill:#ABD809;}
</style>
<g>
	<defs>
		<rect id="SVGID_1_" x="-13.3" y="-2.1" width="120" height="100"/>
	</defs>
	<clipPath id="SVGID_2_">
		<use xlink:href="#SVGID_1_"  style="overflow:visible;"/>
	</clipPath>
	<path class="st0" d="M1,70.4c-0.1,0.4-0.1,0.9,0.2,1.3L3.1,75l-2.9,5c-0.2,0.4-0.3,0.9-0.2,1.3c0.1,0.4,0.4,0.8,0.8,1.1l3.7,2.2v-2
		l-2.9-1.7l2.9-5v-3.5l-0.5,0.9l-1.4-2.4l1.9-1.1v-2l-2.8,1.6C1.4,69.6,1.1,69.9,1,70.4 M95.2,63.4c-0.3-0.3-0.8-0.5-1.2-0.5H76.2
		l16.7-9.5c0.8-0.5,1.1-1.5,0.6-2.4l-14-24c-0.2-0.4-0.6-0.7-1.1-0.8c-0.1,0-0.3-0.1-0.5-0.1c-0.3,0-0.6,0.1-0.9,0.2l-14.6,8.4
		l8.1-14.1c0.2-0.4,0.3-0.9,0.2-1.3c-0.1-0.4-0.4-0.8-0.8-1.1l-24.1-14c-0.3-0.2-0.6-0.2-0.9-0.2c-0.6,0-1.2,0.3-1.5,0.9L32.8,23.2
		v3.5L44.9,5.7l24.1,14L32.8,82.8v4.9l40.3-23h20.8v28.3H29l2.6-4.6l0.6-0.4h-2.4l-3.7,6.5l-4.3-2.5l-0.6,0.3L13.8,88h-3.5l0.5,0.3
		l2.7,4.7H7.7V88H5.8v4.9c0,1,0.8,1.8,1.8,1.8h7.1l0.6,1.1c0.3,0.6,0.9,0.9,1.5,0.9c0.3,0,0.6-0.1,0.9-0.2l3-1.7h1.3l3.1,1.8
		c0.3,0.2,0.6,0.2,0.9,0.2c0.6,0,1.2-0.3,1.5-0.9l0.7-1.2h66c1,0,1.8-0.8,1.8-1.8V64.6C95.7,64.1,95.5,63.7,95.2,63.4 M33.4,85.3
		l27.4-47.7L78,27.8l14,24L33.4,85.3z M16.7,94.9l-0.1-0.2h0.2l-1-1.8h-0.2L13.9,90l5.6,3.3L16.7,94.9z M25.9,94.9l-0.5-0.3H26
		L25.9,94.9z"/>
	<path class="st1" d="M32.8,0H4.6c-1,0-1.7,0.8-1.7,1.8l0,86.2c0,0.5,0.2,0.9,0.5,1.2c0.3,0.3,0.8,0.5,1.2,0.5h28.2
		c1,0,1.8-0.8,1.8-1.8V1.8C34.6,0.8,33.8,0,32.8,0 M32.8,87.9H4.6V66.8h28.2V87.9z M32.8,66H4.6V44.7h28.2V66z M32.8,43.9H4.6l0-21
		h28.2V43.9z M32.8,22H4.6V1.8h28.2V22z M18.2,82.8c2.5,0,4.5-2,4.5-4.4c0-2.5-2-4.5-4.5-4.5c-2.5,0-4.4,2-4.4,4.5
		C13.7,80.8,15.7,82.8,18.2,82.8 M18.2,74.6c2,0,3.7,1.7,3.7,3.7c0,2-1.7,3.7-3.7,3.7s-3.7-1.7-3.7-3.7
		C14.5,76.3,16.1,74.6,18.2,74.6"/>
</g>
</svg>
