<?xml version="1.0" encoding="utf-8"?>
<!-- Generator: Adobe Illustrator 19.0.0, SVG Export Plug-In . SVG Version: 6.00 Build 0)  -->
<svg version="1.1" id="Layer_1" xmlns="http://www.w3.org/2000/svg" xmlns:xlink="http://www.w3.org/1999/xlink" x="0px" y="0px"
	 width="104.9px" height="91.8px" viewBox="0 0 104.9 91.8" style="enable-background:new 0 0 104.9 91.8;" xml:space="preserve">
<style type="text/css">
	.st0{clip-path:url(#SVGID_2_);fill:#ABD809;}
	.st1{clip-path:url(#SVGID_2_);fill:#FFFFFF;}
</style>
<g>
	<defs>
		<rect id="SVGID_1_" x="-11" y="-7.1" width="120" height="100"/>
	</defs>
	<clipPath id="SVGID_2_">
		<use xlink:href="#SVGID_1_"  style="overflow:visible;"/>
	</clipPath>
	<path class="st0" d="M39,70.9v1.6l-3.3,3.3v-70h0.2c0.2,0,0.5-0.1,0.6-0.3L39,3v39.8c0.2-0.5,0.5-1,0.8-1.5V2.3l0.5-0.5h4.3L45,2.3
		c0,0,0,0,0,0.1v31.5c0.2-0.3,0.5-0.5,0.8-0.8V3l2.5,2.5c0.2,0.2,0.4,0.3,0.6,0.3H49v24.3c0.2-0.2,0.5-0.4,0.8-0.6V5.8H60v18.6
		c0.2-0.1,0.5-0.1,0.8-0.2V5.8h0.2c0.2,0,0.5-0.1,0.6-0.3L64,3v20.4c0.3,0,0.5-0.1,0.8-0.1v-21l0.5-0.5h4.3L70,2.3c0,0,0,0,0,0.1
		v20.6c0.3,0,0.5,0,0.8,0V3l2.5,2.5c0.2,0.2,0.4,0.3,0.6,0.3H74v17.3c0.3,0,0.5,0.1,0.8,0.1V5.8H84v20.1c0.6,0.3,1.2,0.6,1.8,0.9
		V4.9c0-0.5-0.4-0.9-0.9-0.9H74.3l-3.8-3.8C70.3,0.1,70.1,0,69.9,0h-5c-0.2,0-0.5,0.1-0.6,0.3l-3.7,3.8H49.3l-3.8-3.8
		C45.3,0.1,45.1,0,44.9,0h-5c-0.2,0-0.5,0.1-0.6,0.3l-3.7,3.8H24.3l-3.8-3.8C20.3,0.1,20.1,0,19.9,0h-5c-0.2,0-0.5,0.1-0.6,0.3
		l-3.7,3.8H0.9C0.4,4.1,0,4.5,0,4.9v72c0,0.5,0.4,0.9,0.9,0.9h10c0.2,0,0.5-0.1,0.6-0.3l3.7-3.8h4.3l3.8,3.8
		c0.2,0.2,0.4,0.3,0.6,0.3h12c0.2,0,0.5-0.1,0.6-0.3l3.7-3.8h0.2C39.9,72.8,39.4,71.9,39,70.9 M10,76H1.7V5.8H10V76z M14,72.5
		l-3.3,3.3v-70h0.2c0.2,0,0.5-0.1,0.6-0.3L14,3V72.5z M20,2.3V72c0,0-0.1,0-0.1,0h-5c0,0-0.1,0-0.1,0V2.3l0.5-0.5h4.3L20,2.3
		C20,2.3,20,2.3,20,2.3 M24,75.7l-3.3-3.3V3l2.5,2.5c0.2,0.2,0.4,0.3,0.6,0.3H24V75.7z M35,76H24.8V5.8H35V76z"/>
	<path class="st1" d="M70,22c-19.2,0-34.9,15.6-34.9,34.9S50.8,91.8,70,91.8c19.2,0,34.9-15.6,34.9-34.9S89.2,22,70,22 M70,90
		c-18.3,0-33.1-14.9-33.1-33.1S51.7,23.8,70,23.8c18.3,0,33.1,14.9,33.1,33.1S88.3,90,70,90 M89,37.3L68.9,57.5V44.9
		c0-0.3-0.2-0.6-0.4-0.7c-0.1,0-0.2-0.1-0.3-0.1c-0.2,0-0.3,0.1-0.5,0.2l-8.3,6.8h-3.9c-1.3,0-2.3,1-2.3,2.3v6.2
		c0,1.3,1,2.3,2.3,2.3h3.9l2.8,2.3L50.4,76l0.5,0.5l11.8-11.8l4.9,4c0.1,0.1,0.3,0.2,0.5,0.2c0.1,0,0.2,0,0.3-0.1
		c0.3-0.1,0.4-0.4,0.4-0.7v-9.5l5.6-5.6c1,0.8,1.7,2.1,1.7,3.5c0,1.6-0.8,2.9-2.1,3.7l0.5,0.5c1.4-0.9,2.3-2.5,2.3-4.3
		c0-1.6-0.7-3-1.9-4l3.1-3.1c1.9,1.7,3.2,4.2,3.2,7c0,3-1.4,5.6-3.5,7.3l0.5,0.5c2.3-1.9,3.7-4.7,3.7-7.8c0-3-1.3-5.7-3.4-7.6
		l2.9-2.9c2.8,2.6,4.6,6.4,4.6,10.5c0,4.3-1.9,8.1-4.9,10.8l0.5,0.5c3.1-2.8,5.1-6.8,5.1-11.3c0-4.4-1.9-8.3-4.8-11l7.5-7.5L89,37.3
		z M68.1,68.1l-4.8-3.9l4.8-4.8V68.1z M68.1,58.2l-5.4,5.4l-3.1-2.5h-4.2c-0.9,0-1.5-0.7-1.5-1.5v-6.2c0-0.9,0.7-1.5,1.5-1.5h4.2
		l8.5-7V58.2z"/>
</g>
</svg>
