<?xml version="1.0" encoding="utf-8"?>
<!-- Generator: Adobe Illustrator 19.0.0, SVG Export Plug-In . SVG Version: 6.00 Build 0)  -->
<svg version="1.1" id="Layer_1" xmlns="http://www.w3.org/2000/svg" xmlns:xlink="http://www.w3.org/1999/xlink" x="0px" y="0px"
	 width="114.2px" height="75.8px" viewBox="0 0 114.2 75.8" style="enable-background:new 0 0 114.2 75.8;" xml:space="preserve">
<style type="text/css">
	.st0{clip-path:url(#SVGID_2_);fill:#ABD809;}
	.st1{clip-path:url(#SVGID_2_);fill:#FFFFFF;}
</style>
<g>
	<defs>
		<rect id="SVGID_1_" x="-1.7" y="-14" width="120" height="100"/>
	</defs>
	<clipPath id="SVGID_2_">
		<use xlink:href="#SVGID_1_"  style="overflow:visible;"/>
	</clipPath>
	<path class="st0" d="M104.3,27.9h3.3c3.5,0,6.3-3.4,6.4-3.6c0.1-0.2,0.2-0.3,0.2-0.5V4.1c0-0.2-0.1-0.4-0.2-0.5
		c-0.1-0.1-2.9-3.6-6.4-3.6H56c-0.2,0-0.4,0.1-0.6,0.2l-3.5,2.9h-3.7c-0.5,0-0.9,0.4-0.9,0.9v3.4L46,5.5c-0.2-0.2-0.4-0.4-0.7-0.4
		H31.9C31.4,5.1,31,5.5,31,6v0.2L22.2,11H2.9c-0.2,0-0.5,0.1-0.6,0.3l-2,2.1c-0.3,0.3-0.3,0.9,0,1.2l2,2.1C2.4,16.9,2.7,17,2.9,17
		h19.6l8.5,4.7v0.4c0,0.5,0.4,0.9,0.9,0.9h13.4c0.3,0,0.5-0.1,0.7-0.4l1.4-1.8V24c0,0.5,0.4,0.9,0.9,0.9h3.8l3.4,2.8
		c0.2,0.1,0.4,0.2,0.6,0.2h16.7c0.3,0.6,0.9,2,0.9,4.8c0,3.9-1.1,5.9-1.1,5.9c-0.2,0.3-0.2,0.6,0,0.9c0.2,0.3,0.4,0.4,0.8,0.4h9.5
		c1.8,6.2,2,12.3,2,14.1c0,2.4-1.2,4.6-3.6,6.2h-5.7c-1.6,0-3,1.4-3,3v9.6c0,1.7,1.3,3,3,3h35.8c1.6,0,3-1.4,3-3V63
		c0-1.2-0.7-2.3-1.7-2.8c-1-6.8-4.5-16.8-6.9-23.5c-1.1-3.2-2.3-6.5-2.3-7.1C103.2,29,103.5,28.4,104.3,27.9 M3.3,15.2L2.1,14
		l1.2-1.2h0.3L6,15.2H3.3z M7.1,15.2l-2.4-2.4h2.9l2.4,2.4H7.1z M11.1,15.2l-2.4-2.4h2.9l2.4,2.4H11.1z M15.1,15.2l-2.4-2.4h2.9
		l2.4,2.4H15.1z M19.1,15.2l-2.4-2.4h2.9l2.4,2.4H19.1z M32.5,20.5c-0.1-0.1-0.1-0.1-0.2-0.2l-9-4.9l-2.6-2.6h1.9
		c0.2,0,0.5-0.1,0.6-0.3l9.1-5c0.1,0,0.1-0.1,0.2-0.2V20.5z M33.2,21.2C33.2,21.2,33.2,21.2,33.2,21.2l0-14.3h10.1v14.3
		c0,0,0,0.1,0,0.1H33.2z M51.5,23.1h-2.4v-5c0-0.4-0.2-0.7-0.6-0.8c-0.4-0.1-0.8,0-1,0.3l-2.7,3.6h-0.8c0,0,0-0.1,0-0.1V6.9h0.8
		l2.7,3.7c0.2,0.3,0.6,0.4,1,0.3c0.4-0.1,0.6-0.5,0.6-0.8V4.8h2.4V23.1z M106.1,1.8h1.4c2.2,0,4.3,2,4.9,2.7v18.9
		c-0.6,0.7-2.6,2.7-4.9,2.7h-1.4V1.8z M56.4,26.1L56.4,26.1l-3.5-2.8c-0.2-0.1-0.4-0.2-0.6-0.2h-0.1V4.8h0c0.2,0,0.4-0.1,0.6-0.2
		l3.5-2.9h0.1V26.1z M74.4,38.1c0.4-1.1,0.8-2.9,0.8-5.4c0-2.3-0.3-3.8-0.7-4.8h1.1c3.1,2.7,5.1,6.4,6.4,10.3H74.4z M101.4,29.7
		c0,0.8,0.8,3.1,2.4,7.7c2.4,6.8,6.1,17,6.9,23.6c0,0,0,0.1,0,0.1h-3.5c0,0.2,0.1,0.5,0.1,0.7h4.3c0.4,0.2,0.7,0.6,0.7,1.2v9.8
		c0,0.7-0.6,1.3-1.2,1.3H75.3c-0.7,0-1.2-0.6-1.2-1.3v-9.6c0-0.7,0.6-1.3,1.2-1.3h5.9c0.1,0,0.2,0,0.3-0.1h13.8c0-0.3,0-0.5,0.1-0.7
		H82.7c2.4-1.9,3.7-4.4,3.7-7.2c0-4.6-0.7-20.1-9.8-27.6c-0.2-0.1-0.4-0.2-0.6-0.2H57.1V1.8h48.2v24.4H104c-0.2,0-0.4,0.1-0.5,0.2
		C101.8,27.5,101.4,28.8,101.4,29.7"/>
	<path class="st1" d="M60.3,18.9h2v-1.8h-2V18.9z M60.3,22.9h2v-1.8h-2V22.9z M60.3,14.9h2v-1.8h-2V14.9z M60.3,6.9h2V5.1h-2V6.9z
		 M60.3,10.9h2V9.1h-2V10.9z M101.3,55.1c-3.8,0-6.9,3.1-6.9,6.9s3.1,6.9,6.9,6.9c3.8,0,6.9-3.1,6.9-6.9S105.1,55.1,101.3,55.1
		 M101.3,67.1c-2.8,0-5.1-2.3-5.1-5.1c0-2.8,2.3-5.1,5.1-5.1c2.8,0,5.1,2.3,5.1,5.1C106.4,64.8,104.1,67.1,101.3,67.1"/>
</g>
</svg>
