<?xml version="1.0" encoding="utf-8"?>
<!-- Generator: Adobe Illustrator 19.0.0, SVG Export Plug-In . SVG Version: 6.00 Build 0)  -->
<svg version="1.1" id="Layer_1" xmlns="http://www.w3.org/2000/svg" xmlns:xlink="http://www.w3.org/1999/xlink" x="0px" y="0px"
	 width="74.5px" height="95.7px" viewBox="0 0 74.5 95.7" style="enable-background:new 0 0 74.5 95.7;" xml:space="preserve">
<style type="text/css">
	.st0{clip-path:url(#SVGID_2_);fill:#ABD809;}
	.st1{clip-path:url(#SVGID_2_);fill:#FFFFFF;}
</style>
<g>
	<defs>
		<rect id="SVGID_1_" x="-23.3" y="-3.2" width="120" height="100"/>
	</defs>
	<clipPath id="SVGID_2_">
		<use xlink:href="#SVGID_1_"  style="overflow:visible;"/>
	</clipPath>
	<path class="st0" d="M72.7,6h-10c-4.8,0-7.4-5-7.4-5c-0.3-0.6-0.9-1-1.6-1h-33c-0.7,0-1.3,0.4-1.6,1c0,0-2.6,5-6.4,5h-11
		c-1,0-1.8,0.8-1.8,1.8v39c0,12.8,6.5,25.3,18.7,36.1c9.1,8.1,18.7,12.4,19,12.6c0.2,0.1,0.5,0.2,0.8,0.2c0.3,0,0.6-0.1,0.8-0.2
		c0.4-0.2,9.3-4.5,17.8-12.6c11.4-10.8,17.5-23.3,17.5-36.1v-39C74.5,6.8,73.7,6,72.7,6 M72.7,46.8c0,30-34.3,47.1-34.3,47.1
		S1.7,76.8,1.7,46.8v-39h11c5,0,8-6,8-6h33c0,0,3,6,9,6h10V46.8z M51.5,6l-0.1-0.1H23.1l-0.1,0.1C20.9,8.8,17.4,12,12.4,12H5.9v34.8
		c0,22,22.5,36.9,32.2,42.3l0.2,0.1l0.2-0.1c9-5.4,29.9-20.3,29.9-42.3V12H63C57.1,12,53.3,8.3,51.5,6 M37.9,88.1
		C28,82.5,6.7,68,6.7,46.8V19.2l31.2,25.3V88.1z M67.7,46.8c0,21.2-19.9,35.7-29,41.3V44.3l0.1,0.1l29-23.2V46.8z M67.7,12.7v7.5
		L38.3,43.7l0.3,0.4L6.8,18.4l-0.1,0.1v-5.7h5.7c5.2,0,8.9-3.3,11-6.1H51c1.9,2.3,5.9,6.1,12,6.1H67.7z"/>
	<path class="st1" d="M23.7,62.8v2.7h0.8v-2.7c-0.1,0-0.2,0-0.3,0C24,62.8,23.9,62.8,23.7,62.8 M24.5,47.7v-2.9h-0.8v2.9
		c0.2,0,0.3,0,0.5,0C24.3,47.7,24.4,47.7,24.5,47.7 M16.6,55.3c0-0.2,0-0.3,0-0.5h-2.9v0.8h2.9C16.6,55.5,16.6,55.4,16.6,55.3
		 M19.1,49.7L17,47.6l-0.5,0.5l2.1,2.1C18.7,50,18.9,49.9,19.1,49.7 M16.5,62.3l0.5,0.5l2-2c-0.2-0.2-0.4-0.3-0.5-0.5L16.5,62.3z
		 M24.2,49.9c-2.9,0-5.3,2.4-5.3,5.3c0,2.9,2.3,5.4,5.3,5.4l0,0c2.9,0,5.3-2.4,5.3-5.3C29.5,52.3,27.1,49.9,24.2,49.9 M24.2,58.8
		c-2,0-3.6-1.6-3.6-3.6c0-2,1.6-3.6,3.6-3.6c2,0,3.6,1.6,3.6,3.6C27.7,57.2,26.1,58.8,24.2,58.8 M29.2,49.6c0.2,0.2,0.4,0.3,0.5,0.5
		l2-2l-0.5-0.5L29.2,49.6z M31.7,55.3c0,0.1,0,0.2,0,0.3h2.7v-0.8h-2.7C31.7,55,31.7,55.1,31.7,55.3 M29.2,60.9l1.9,1.9l0.5-0.5
		l-1.9-1.9C29.6,60.5,29.4,60.7,29.2,60.9 M62.5,54.9H59l2-2l-0.5-0.5L58,54.9h-4.8l3.6-3.6H60v-0.8h-2.5l2.3-2.3l-0.5-0.5l-2.5,2.5
		v-2.8h-0.8v3.5l-3.6,3.6v-5l2.5-2.5l-0.5-0.5l-2,2v-3.6h-0.8v3.4L50,46.5l-0.5,0.5l2.3,2.3v5L48.4,51v-3.5h-0.8v2.8l-2.6-2.6
		l-0.5,0.5l2.4,2.4h-2.5v0.8h3.2l3.5,3.5h-4.7l-2.5-2.5L43.5,53l2,2h-3.6v0.8h3.4l-1.8,1.8l0.5,0.5l2.3-2.3h5L48,59h-3.5v0.8h2.8
		l-2.6,2.6l0.5,0.5l2.4-2.4v2.5h0.8v-3.2l3.3-3.3v4.8l-2.3,2.3L50,64l1.8-1.8v3.3h0.8V62l2,2l0.5-0.5L52.5,61v-4.8l3.6,3.6V63h0.8
		v-2.5l2.3,2.3l0.5-0.5l-2.5-2.5H60v-0.8h-3.5l-3.4-3.4h5.1l2.3,2.3l0.5-0.5l-1.8-1.8h3.3V54.9z M44.7,27.3c0-3.3-5.3-12-5.9-12.9
		c-0.1-0.2-0.4-0.4-0.6-0.4c-0.3,0-0.5,0.1-0.6,0.4c-0.6,1-5.9,9.6-5.9,12.9c0,3.6,2.9,6.5,6.5,6.5C41.8,33.8,44.7,30.9,44.7,27.3
		 M38.2,33c-3.2,0-5.7-2.6-5.7-5.7c0-3.2,5.7-12.5,5.7-12.5s5.7,9.4,5.7,12.5C43.9,30.5,41.4,33,38.2,33"/>
</g>
</svg>
