<?xml version="1.0" encoding="utf-8"?>
<!-- Generator: Adobe Illustrator 19.0.0, SVG Export Plug-In . SVG Version: 6.00 Build 0)  -->
<svg version="1.1" id="Layer_1" xmlns="http://www.w3.org/2000/svg" xmlns:xlink="http://www.w3.org/1999/xlink" x="0px" y="0px"
	 width="96px" height="87.8px" viewBox="0 0 96 87.8" style="enable-background:new 0 0 96 87.8;" xml:space="preserve">
<style type="text/css">
	.st0{clip-path:url(#SVGID_2_);fill:#ABD809;}
	.st1{clip-path:url(#SVGID_2_);fill:#FFFFFF;}
</style>
<g>
	<defs>
		<rect id="SVGID_1_" x="-12" y="-1.2" width="120" height="100"/>
	</defs>
	<clipPath id="SVGID_2_">
		<use xlink:href="#SVGID_1_"  style="overflow:visible;"/>
	</clipPath>
	<path class="st0" d="M94,42.8h-3v-16c0-1-0.4-1.9-1-2.6v-6.4c0-2.2-1.8-4-4-4H65.6l2,2H86c1.1,0,2,0.9,2,2v6.3
		c-0.2,0-0.3-0.1-0.5-0.1H6.7c-2.2,0-3.9-1-4.7-2.6v-1.6c0-2,2-4,4-4h31l2-2H6c-2,0-3.9,1.2-5,2.9l0,0l0,0c-0.6,0.9-1,2-1,3.1v64
		c0,2.2,1.8,4,4,4h83c2.2,0,4-1.8,4-4v-17h3c1.1,0,2-0.9,2-2v-20C96,43.7,95.1,42.8,94,42.8 M89,83.8c0,1.1-0.9,2-2,2H4
		c-1.1,0-2-0.9-2-2v-61c1.1,1.2,2.7,2,4.7,2h80.8c0.2,0,0.3,0,0.5,0.1v0.2c0.6,0.3,1,1,1,1.7v17.3H77.8c-3.8,0-12.8,0-12.8,10.8
		s7.7,10.8,12.8,10.8H89V83.8z M94,64.8h-5H77.8c-5,0-12,0-12-10s8-10,12-10H89h5V64.8z"/>
	<path class="st1" d="M76,50.7c2.3,0,4.1,1.9,4.1,4.2S78.3,59,76,59c-2.3,0-4.2-1.9-4.2-4.2S73.7,50.7,76,50.7 M76,49.9
		c-2.7,0-4.9,2.2-4.9,4.9s2.2,4.9,4.9,4.9c2.7,0,4.9-2.2,4.9-4.9S78.7,49.9,76,49.9"/>
	<path class="st1" d="M30.2,23.8L52.3,1.7l22.1,22.1h2.5L53.5,0.5C53.2,0.2,52.8,0,52.3,0c-0.5,0-0.9,0.2-1.2,0.5L27.7,23.8H30.2z"
		/>
</g>
</svg>
