<?xml version="1.0" encoding="iso-8859-1"?>
<!-- Generator: Adobe Illustrator 19.0.0, SVG Export Plug-In . SVG Version: 6.00 Build 0)  -->
<svg version="1.1" id="Capa_1" xmlns="http://www.w3.org/2000/svg" xmlns:xlink="http://www.w3.org/1999/xlink" x="0px" y="0px"
	 width="48.428px" height="29.103px" viewBox="-281 382.181 48.428 29.103"
	 style="enable-background:new -281 382.181 48.428 29.103;" xml:space="preserve">
<path style="fill:#A2ADAE;" d="M-247.067,382.287c-3.741,0.001-7.151,1.419-9.721,3.748c-2.572-2.326-5.98-3.745-9.717-3.745
	c-0.031,0-0.063,0-0.093,0c-7.958,0.052-14.402,6.526-14.402,14.495c0,8.001,6.494,14.494,14.494,14.494
	c3.737,0,7.145-1.417,9.716-3.745c-0.537-0.485-1.023-1.022-1.482-1.584h2.993c-0.451,0.553-0.943,1.071-1.472,1.553h-0.002
	c-0.012,0.013-0.025,0.021-0.037,0.032c2.573,2.33,5.985,3.75,9.728,3.749c8.005-0.003,14.492-6.495,14.49-14.499
	c0-0.003,0-0.005,0-0.007C-232.571,388.774-239.062,382.285-247.067,382.287z M-258.106,387.532h2.755
	c0.406,0.492,0.783,1.01,1.125,1.552h-4.915C-258.824,388.566-258.476,388.033-258.106,387.532z M-259.997,390.606h6.607
	c0.235,0.502,0.443,1.021,0.625,1.553h-8.015C-260.7,392.009-260.42,391.405-259.997,390.606z M-275.083,400.477l0.879-5.542
	l-1.983,5.542h-1.063l-0.138-5.542l-0.939,5.542h-1.489l1.234-7.35h2.252l0.079,4.51l1.521-4.51h2.443l-1.217,7.35H-275.083z
	 M-269.818,400.465l0.051-0.587c-0.024,0.003-0.494,0.709-1.583,0.709c-0.57,0-1.49-0.311-1.49-1.663
	c0-1.719,1.402-2.289,2.737-2.289c0.21,0,0.663,0.038,0.663,0.038s0.051-0.105,0.051-0.389c0-0.467-0.42-0.531-0.995-0.531
	c-1.013,0-1.682,0.271-1.682,0.271l0.224-1.33c0,0,0.812-0.34,1.869-0.34c0.547,0,2.12,0.058,2.12,1.861l-0.606,4.25H-269.818z
	 M-264.075,398.594c0,2.051-1.987,1.963-2.334,1.963c-1.295,0-1.695-0.179-1.732-0.189l0.206-1.35
	c0.002-0.012,0.65,0.235,1.371,0.235c0.416,0,0.956-0.041,0.956-0.538c0-0.744-1.932-0.566-1.932-2.333
	c0-1.559,1.158-2.015,2.3-2.015c0.882,0,1.424,0.121,1.424,0.121l-0.195,1.362c0,0-0.837-0.069-1.054-0.069
	c-0.549,0-0.848,0.12-0.848,0.504C-265.914,397.056-264.075,396.678-264.075,398.594z M-261.689,399.131
	c0.137,0,0.292-0.047,0.398-0.047l-0.193,1.311c-0.155,0.043-0.594,0.199-1.157,0.203c-0.719,0.006-1.23-0.396-1.23-1.308
	c0-0.612,0.877-5.655,0.911-5.688h1.543l-0.157,0.902h0.77l-0.197,1.453h-0.817l-0.434,2.677
	C-262.285,398.847-262.226,399.131-261.689,399.131z M-258.295,394.334c1.694,0,2.201,1.24,2.201,2.257
	c0,0.407-0.204,1.407-0.204,1.407h-3.136c0,0-0.29,1.235,1.367,1.235c0.777,0,1.639-0.38,1.639-0.38l-0.272,1.487
	c0,0-0.498,0.254-1.63,0.254c-1.227,0-2.666-0.519-2.666-2.699C-260.995,396.006-259.847,394.334-258.295,394.334z
	 M-254.208,404.457h-5.142c-0.313-0.5-0.605-1.013-0.856-1.552h6.843C-253.615,403.441-253.897,403.959-254.208,404.457z
	 M-254.553,400.488h-1.584l0.963-5.982h1.437l-0.138,0.867c0,0,0.512-0.943,1.203-0.943c0.201,0,0.298,0.02,0.298,0.02
	c-0.205,0.418-0.386,0.801-0.574,1.79C-254.02,395.86-254.102,397.933-254.553,400.488z M-248.518,400.395
	c0,0-0.83,0.212-1.35,0.212c-1.842,0-2.777-1.271-2.777-3.196c0-2.903,1.733-4.449,3.514-4.449c0.805,0,1.738,0.378,1.738,0.378
	l-0.252,1.635c0,0-0.631-0.441-1.416-0.441c-1.05,0-1.992,1.002-1.992,2.823c0,0.897,0.439,1.733,1.535,1.733
	c0.521,0,1.276-0.379,1.276-0.379L-248.518,400.395z M-244.803,400.469l0.052-0.591c-0.025,0.003-0.495,0.709-1.583,0.709
	c-0.57,0-1.49-0.311-1.49-1.663c0-1.719,1.402-2.289,2.736-2.289c0.21,0,0.664,0.038,0.664,0.038s0.052-0.104,0.052-0.388
	c0-0.467-0.42-0.531-0.996-0.531c-1.013,0-1.681,0.271-1.681,0.271l0.224-1.33c0,0,0.812-0.34,1.87-0.34
	c0.546,0,2.12,0.058,2.119,1.861l-0.606,4.25C-243.443,400.469-244.803,400.469-244.803,400.469z M-241.596,400.488h-1.584
	l0.963-5.982h1.438l-0.138,0.867c0,0,0.513-0.943,1.204-0.943c0.201,0,0.297,0.02,0.297,0.02c-0.204,0.418-0.387,0.801-0.574,1.79
	C-241.063,395.86-241.145,397.933-241.596,400.488z M-236.867,400.472l0.067-0.551c0,0-0.512,0.646-1.438,0.646
	c-1.283,0-1.912-1.239-1.912-2.505c0-1.958,1.178-3.665,2.592-3.665c0.91,0.002,1.491,0.805,1.491,0.805l0.334-2.065l1.547-0.003
	l-1.18,7.338H-236.867z M-233.815,400.265c-0.041,0.074-0.099,0.131-0.173,0.175c-0.073,0.041-0.151,0.062-0.233,0.062
	c-0.08,0-0.157-0.021-0.231-0.062c-0.074-0.044-0.132-0.101-0.173-0.175c-0.042-0.075-0.062-0.151-0.062-0.232
	c0-0.082,0.021-0.16,0.062-0.234c0.041-0.074,0.102-0.134,0.175-0.174c0.076-0.041,0.151-0.062,0.229-0.062
	c0.08,0,0.156,0.021,0.23,0.062c0.076,0.041,0.134,0.098,0.176,0.174c0.043,0.075,0.062,0.153,0.062,0.234
	S-233.773,400.191-233.815,400.265z"/>
<path style="fill:#A2ADAE;" d="M-233.939,404.688c-0.01-0.007-0.019-0.018-0.035-0.024c-0.016-0.006-0.041-0.009-0.08-0.009h-0.094
	v0.15h0.1c0.047,0,0.078-0.004,0.096-0.021c0.017-0.014,0.025-0.031,0.025-0.055C-233.927,404.714-233.931,404.702-233.939,404.688z
	"/>
<path style="fill:#A2ADAE;" d="M-233.616,404.598c-0.043-0.078-0.102-0.133-0.177-0.174c-0.075-0.041-0.151-0.062-0.229-0.062
	c-0.08,0-0.156,0.021-0.23,0.062c-0.074,0.041-0.135,0.098-0.176,0.174c-0.043,0.074-0.062,0.152-0.062,0.232
	c0,0.08,0.021,0.159,0.062,0.232c0.043,0.074,0.101,0.134,0.174,0.175c0.074,0.041,0.152,0.062,0.234,0.062
	c0.08,0,0.158-0.021,0.231-0.062c0.073-0.041,0.132-0.101,0.173-0.175c0.042-0.073,0.062-0.151,0.062-0.232
	S-233.575,404.672-233.616,404.598z M-233.904,405.09v0.001l-0.044-0.08c-0.035-0.062-0.064-0.103-0.086-0.119
	c-0.014-0.01-0.036-0.018-0.064-0.018h-0.047v0.215h-0.082v-0.505h0.174c0.06,0,0.103,0.005,0.127,0.015
	c0.027,0.01,0.05,0.024,0.064,0.049c0.016,0.023,0.023,0.048,0.023,0.074c0,0.037-0.014,0.068-0.039,0.097
	c-0.026,0.026-0.062,0.043-0.105,0.046c0.018,0.006,0.032,0.016,0.043,0.027c0.021,0.02,0.045,0.053,0.075,0.099l0.062,0.099
	H-233.904z"/>
<path style="fill:#A2ADAE;" d="M-269.978,397.782c-1.131,0-1.36,0.508-1.36,0.931c0,0.218,0.125,0.582,0.604,0.582
	c0.929,0,1.122-1.218,1.092-1.477C-269.686,397.809-269.714,397.783-269.978,397.782z"/>
<path style="fill:#A2ADAE;" d="M-258.289,395.715c-0.841,0-1.003,0.957-1.003,1.058h1.713
	C-257.579,396.696-257.418,395.715-258.289,395.715z"/>
<path style="fill:#A2ADAE;" d="M-237.291,395.883c-0.679,0-1.216,0.788-1.215,1.985c0,0.73,0.26,1.198,0.816,1.198
	c0.836,0,1.239-1.091,1.239-1.904C-236.451,396.264-236.736,395.883-237.291,395.883z"/>
<path style="fill:#A2ADAE;" d="M-233.885,399.839c-0.035-0.062-0.084-0.11-0.146-0.145c-0.062-0.035-0.125-0.052-0.191-0.052
	c-0.064,0-0.129,0.018-0.191,0.052c-0.062,0.032-0.111,0.082-0.146,0.145c-0.035,0.063-0.053,0.13-0.053,0.195
	c0,0.067,0.018,0.133,0.051,0.194c0.037,0.062,0.084,0.109,0.146,0.146c0.062,0.034,0.126,0.054,0.193,0.054s0.133-0.02,0.193-0.054
	c0.062-0.035,0.11-0.083,0.146-0.146c0.035-0.062,0.051-0.127,0.051-0.194C-233.832,399.968-233.85,399.902-233.885,399.839z
	 M-234.102,400.291l-0.045-0.078c-0.035-0.063-0.063-0.103-0.084-0.118c-0.017-0.013-0.037-0.019-0.066-0.019h-0.046v0.214h-0.084
	v-0.504h0.175c0.059,0,0.103,0.005,0.128,0.016c0.025,0.009,0.047,0.026,0.064,0.048s0.023,0.047,0.023,0.074
	c0,0.037-0.014,0.068-0.04,0.096c-0.026,0.029-0.062,0.041-0.104,0.046c0.02,0.008,0.033,0.017,0.043,0.026
	c0.021,0.021,0.045,0.051,0.074,0.099l0.062,0.1C-234.002,400.292-234.102,400.292-234.102,400.291z"/>
<path style="fill:#A2ADAE;" d="M-244.961,397.782c-1.131,0-1.36,0.508-1.36,0.931c0,0.218,0.124,0.582,0.604,0.582
	c0.929,0,1.121-1.218,1.092-1.477C-244.67,397.809-244.698,397.783-244.961,397.782z"/>
<path style="fill:#A2ADAE;" d="M-234.136,399.889c-0.008-0.01-0.019-0.018-0.034-0.025c-0.017-0.005-0.042-0.01-0.082-0.01v0.001
	h-0.091v0.152h0.099c0.047,0,0.078-0.006,0.097-0.021c0.015-0.015,0.024-0.034,0.024-0.056
	C-234.123,399.913-234.127,399.903-234.136,399.889z"/>
</svg>
