<?xml version="1.0" encoding="iso-8859-1"?>
<!-- Generator: Adobe Illustrator 19.0.0, SVG Export Plug-In . SVG Version: 6.00 Build 0)  -->
<svg version="1.1" id="Capa_1" xmlns="http://www.w3.org/2000/svg" xmlns:xlink="http://www.w3.org/1999/xlink" x="0px" y="0px"
	 width="47.834px" height="14.725px" viewBox="-281 389.275 47.834 14.725"
	 style="enable-background:new -281 389.275 47.834 14.725;" xml:space="preserve">
<g>
	<polygon style="fill:#A2ADAE;" points="-261.847,389.52 -264.278,403.786 -260.39,403.786 -257.957,389.52 	"/>
	<path style="fill:#A2ADAE;" d="M-267.538,389.536l-3.808,9.729l-0.406-1.469c-0.751-1.77-2.883-4.312-5.386-5.914l3.482,11.897
		l4.114-0.007l6.123-14.239L-267.538,389.536z"/>
	<path style="fill:#A2ADAE;" d="M-273.228,390.556c-0.226-0.869-0.881-1.128-1.694-1.159h-6.028l-0.05,0.285
		c4.691,1.138,7.795,3.88,9.083,7.177L-273.228,390.556z"/>
	<path style="fill:#A2ADAE;" d="M-250.077,392.255c1.272-0.02,2.194,0.258,2.91,0.546l0.351,0.165l0.526-3.092
		c-0.77-0.289-1.977-0.599-3.483-0.599c-3.842,0-6.55,1.935-6.571,4.708c-0.025,2.049,1.929,3.193,3.405,3.876
		c1.515,0.7,2.023,1.145,2.016,1.77c-0.012,0.955-1.208,1.393-2.325,1.393c-1.557,0-2.384-0.215-3.661-0.747l-0.501-0.228
		l-0.547,3.193c0.91,0.399,2.589,0.742,4.332,0.76c4.087,0,6.743-1.912,6.771-4.875c0.017-1.621-1.02-2.858-3.267-3.873
		c-1.36-0.662-2.192-1.102-2.184-1.77C-252.305,392.889-251.599,392.255-250.077,392.255z"/>
	<path style="fill:#A2ADAE;" d="M-236.312,389.535h-3.004c-0.933,0-1.627,0.254-2.037,1.184l-5.773,13.074h4.083
		c0,0,0.666-1.758,0.817-2.143c0.447,0,4.414,0.006,4.979,0.006c0.116,0.498,0.474,2.137,0.474,2.137h3.607L-236.312,389.535z
		 M-241.107,398.731c0.32-0.819,1.549-3.987,1.549-3.987c-0.021,0.039,0.317-0.825,0.518-1.362l0.262,1.23
		c0,0,0.745,3.406,0.901,4.119H-241.107z"/>
</g>
</svg>
