<?xml version="1.0" encoding="iso-8859-1"?>
<!-- Generator: Adobe Illustrator 19.0.0, SVG Export Plug-In . SVG Version: 6.00 Build 0)  -->
<svg version="1.1"
	 id="Layer_1" xmlns:cc="http://creativecommons.org/ns#" xmlns:rdf="http://www.w3.org/1999/02/22-rdf-syntax-ns#" xmlns:dc="http://purl.org/dc/elements/1.1/" xmlns:svg="http://www.w3.org/2000/svg"
	 xmlns="http://www.w3.org/2000/svg" xmlns:xlink="http://www.w3.org/1999/xlink" x="0px" y="0px" width="131.703px"
	 height="37.281px" viewBox="-239 378.719 131.703 37.281" style="enable-background:new -239 378.719 131.703 37.281;"
	 xml:space="preserve">
<g>
	<g id="g5">
		<path id="path7" style="fill:#A2ADAE;" d="M-203.509,378.719v0.016c-0.016,0-5.144-0.016-6.512,4.884
			c-1.254,4.493-4.786,16.898-4.884,17.24h-0.977c0,0-3.614-12.682-4.884-17.257c-1.368-4.9-6.512-4.884-6.512-4.884h-11.721v37.281
			h11.721v-22.14h0.488h0.488l6.837,22.14h8.14l6.837-22.124h0.977V416h11.721v-37.28H-203.509z"/>
	</g>
	<g id="g9">
		<path id="path11" style="fill:#A2ADAE;" d="M-160.693,378.719c0,0-3.435,0.309-5.047,3.907l-8.303,18.233h-0.977v-22.14h-11.721
			V416h11.07l0,0c0,0,3.598-0.326,5.21-3.907l8.14-18.233h0.977V416h11.721v-37.281H-160.693z"/>
	</g>
	<g id="g13">
		<path id="path15" style="fill:#A2ADAE;" d="M-144.414,395.65V416h11.721v-11.884h12.698c5.535,0,10.224-3.533,11.966-8.465
			h-36.385V395.65z"/>
	</g>
	<g id="g17">
		<path id="path24" style="fill:#A2ADAE;" d="M-119.994,378.719h-26.064c1.302,7.098,6.626,12.796,13.512,14.652l0,0
			c1.563,0.423,3.207,0.651,4.9,0.651h20.089c0.179-0.847,0.26-1.709,0.26-2.605C-107.296,384.401-112.979,378.719-119.994,378.719z
			"/>
	</g>
</g>
</svg>
