<?xml version="1.0" encoding="iso-8859-1"?>
<!-- Generator: Adobe Illustrator 19.0.0, SVG Export Plug-In . SVG Version: 6.00 Build 0)  -->
<svg version="1.1" id="Layer_1" xmlns="http://www.w3.org/2000/svg" xmlns:xlink="http://www.w3.org/1999/xlink" x="0px" y="0px"
	 width="51.197px" height="50.843px" viewBox="0 0 51.197 50.843" style="enable-background:new 0 0 51.197 50.843;"
	 xml:space="preserve">
<g>
	<defs>
		<rect id="SVGID_1_" x="-0.001" y="-0.038" width="51.84" height="51.84"/>
	</defs>
	<clipPath id="SVGID_2_">
		<use xlink:href="#SVGID_1_"  style="overflow:visible;"/>
	</clipPath>
	<path style="clip-path:url(#SVGID_2_);fill:#A2ADAE;" d="M23.151,25.429L0.487,48.089c-0.629,0.633-0.629,1.652,0,2.281
		c0.313,0.317,0.727,0.473,1.141,0.473c0.41,0,0.824-0.156,1.137-0.473l22.832-22.832L48.433,50.37
		c0.312,0.317,0.726,0.473,1.136,0.473c0.414,0,0.825-0.156,1.141-0.473c0.629-0.629,0.629-1.648,0-2.281l-22.66-22.66l22.676-22.68
		c0.628-0.629,0.628-1.648,0-2.277c-0.629-0.629-1.649-0.629-2.278,0L25.601,23.32L2.749,0.472c-0.629-0.629-1.648-0.629-2.277,0
		s-0.629,1.648,0,2.277L23.151,25.429z M23.151,25.429"/>
</g>
</svg>
