<?xml version="1.0" encoding="utf-8"?>
<!-- Generator: Adobe Illustrator 19.0.0, SVG Export Plug-In . SVG Version: 6.00 Build 0)  -->
<svg version="1.1" id="Layer_1" xmlns="http://www.w3.org/2000/svg" xmlns:xlink="http://www.w3.org/1999/xlink" x="0px" y="0px"
	 width="51.2px" height="50.9px" viewBox="0 0 51.2 50.9" style="enable-background:new 0 0 51.2 50.9;" xml:space="preserve">
<style type="text/css">
	.st0{clip-path:url(#XMLID_60_);fill:#000;}
</style>
<g id="XMLID_2_">
	<g id="XMLID_3_">
		<defs>
			<rect id="XMLID_4_" width="51.8" height="51.8"/>
		</defs>
		<clipPath id="XMLID_60_">
			<use xlink:href="#XMLID_4_"  style="overflow:visible;"/>
		</clipPath>
		<path id="XMLID_5_" class="st0" d="M23.2,25.5L0.5,48.1c-0.6,0.6-0.6,1.7,0,2.3c0.3,0.3,0.7,0.5,1.1,0.5c0.4,0,0.8-0.2,1.1-0.5
			l22.8-22.8l22.8,22.8c0.3,0.3,0.7,0.5,1.1,0.5c0.4,0,0.8-0.2,1.1-0.5c0.6-0.6,0.6-1.6,0-2.3L28.1,25.5L50.7,2.8
			c0.6-0.6,0.6-1.6,0-2.3c-0.6-0.6-1.6-0.6-2.3,0L25.6,23.4L2.8,0.5c-0.6-0.6-1.6-0.6-2.3,0s-0.6,1.6,0,2.3L23.2,25.5z M23.2,25.5"
			/>
	</g>
</g>
</svg>
