<?xml version="1.0" encoding="utf-8"?>
<!-- Generator: Adobe Illustrator 19.0.0, SVG Export Plug-In . SVG Version: 6.00 Build 0)  -->
<svg version="1.1" id="Layer_1" xmlns="http://www.w3.org/2000/svg" xmlns:xlink="http://www.w3.org/1999/xlink" x="0px" y="0px"
	 width="40.8px" height="42.4px" viewBox="0 0 40.8 42.4" style="enable-background:new 0 0 40.8 42.4;" xml:space="preserve">
<style type="text/css">
	.st0{clip-path:url(#SVGID_2_);}
</style>
<g>
	<g>
		<defs>
			<rect id="SVGID_1_" y="-0.5" width="40.8" height="43.9"/>
		</defs>
		<clipPath id="SVGID_2_">
			<use xlink:href="#SVGID_1_"  style="overflow:visible;"/>
		</clipPath>
		<path class="st0" d="M40.6,41.1L28.7,28.7c3-3,4.9-7.2,4.9-11.9c0-9.3-7.5-16.8-16.8-16.8C7.5,0.1,0,7.6,0,16.9
			c0,9.3,7.5,16.8,16.8,16.8c4.1,0,7.8-1.5,10.7-3.9l11.9,12.4c0.2,0.2,0.4,0.2,0.6,0.2c0.2,0,0.4-0.1,0.6-0.2
			C40.9,41.9,40.9,41.4,40.6,41.1L40.6,41.1z M16.8,32.1c-8.4,0-15.2-6.8-15.2-15.2c0-8.4,6.8-15.2,15.2-15.2
			C25.2,1.7,32,8.5,32,16.9C32,25.2,25.2,32.1,16.8,32.1L16.8,32.1z M16.8,32.1"/>
	</g>
</g>
<g>
	<path d="M16,21.7v-4h-4v-1.7h4v-4h1.7v4h4v1.7h-4v4H16z"/>
</g>
</svg>
